HIERARCHY
ROOT Hips
{
  OFFSET 0.382225 96.6805 0.598322
  CHANNELS 6 Xposition Yposition Zposition Zrotation Xrotation Yrotation
  JOINT Spine
  {
    OFFSET 10.8089 -0.851416 0
    CHANNELS 3 Zrotation Xrotation Yrotation
    JOINT Spine1
    {
      OFFSET 18.8753 3.80116 0
      CHANNELS 3 Zrotation Xrotation Yrotation
      JOINT Spine2
      {
        OFFSET 13.4073 0.420477 0
        CHANNELS 3 Zrotation Xrotation Yrotation
        JOINT LeftShoulder
        {
          OFFSET 11.8837 -2.73209 -3.78198
          CHANNELS 3 Zrotation Xrotation Yrotation
          JOINT LeftArm
          {
            OFFSET 15.7849 0 -2.35849e-005
            CHANNELS 3 Zrotation Xrotation Yrotation
            JOINT LeftForeArm
            {
              OFFSET 30.3399 0 0
              CHANNELS 3 Zrotation Xrotation Yrotation
              JOINT LeftHand
              {
                OFFSET 26.9751 0 2.45913e-005
                CHANNELS 3 Zrotation Xrotation Yrotation
                End Site
                {
                  OFFSET 8 0 0
                }
              }
            }
          }
        }
        JOINT RightShoulder
        {
          OFFSET 11.8838 -2.7321 3.782
          CHANNELS 3 Zrotation Xrotation Yrotation
          JOINT RightArm
          {
            OFFSET -15.7848 0 -1.07056e-005
            CHANNELS 3 Zrotation Xrotation Yrotation
            JOINT RightForeArm
            {
              OFFSET -30.34 1.02096e-005 -2.53607e-005
              CHANNELS 3 Zrotation Xrotation Yrotation
              JOINT RightHand
              {
                OFFSET -26.9752 2.07668e-005 0
                CHANNELS 3 Zrotation Xrotation Yrotation
                End Site
                {
                  OFFSET -8 0 0
                }
              }
            }
          }
        }
        JOINT Neck
        {
          OFFSET 16.5588 -0.355318 0
          CHANNELS 3 Zrotation Xrotation Yrotation
          JOINT Head
          {
            OFFSET 9.28361 0.364157 0
            CHANNELS 3 Zrotation Xrotation Yrotation
            End Site
            {
              OFFSET 0 0 0
            }
          }
        }
      }
    }
  }
  JOINT LeftUpLeg
  {
    OFFSET -1.44883 -0.531424 -9.00581
    CHANNELS 3 Zrotation Xrotation Yrotation
    JOINT LeftLeg
    {
      OFFSET -42.572 0.0788889 -0.011964
      CHANNELS 3 Zrotation Xrotation Yrotation
      JOINT LeftFoot
      {
        OFFSET -40.1967 0 0
        CHANNELS 3 Zrotation Xrotation Yrotation
				JOINT LeftToe
        {
          OFFSET -10.4538 -16.5779 0.0801563
          CHANNELS 3 Zrotation Xrotation Yrotation
          End Site
          {
            OFFSET -1.0 -1.0 0.0
          }
        }
      }
    }
  }
  JOINT RightUpLeg
  {
    OFFSET -1.44865 -0.531427 9.0058
    CHANNELS 3 Zrotation Xrotation Yrotation
    JOINT RightLeg
    {
      OFFSET 42.5723 -3.24776e-005 0
      CHANNELS 3 Zrotation Xrotation Yrotation
      JOINT RightFoot
      {
        OFFSET 40.1968 0 -1.14003e-005
        CHANNELS 3 Zrotation Xrotation Yrotation
				JOINT RightToe
        {
          OFFSET 10.4538 16.5778 -0.0801573
          CHANNELS 3 Zrotation Xrotation Yrotation
          End Site
          {
            OFFSET -1.0 -1.0 0.0
          }
        }
      }
    }
  }
}
MOTION
Frames:	8
Frame Time:	0.0333333
53.0924 91.8947 101.673 -72.5332 -87.0277 -162.389 -9.63173 -2.14136 1.04933 20.3054 -0.336823 -0.583987 2.7794 1.93418e-006 1.65929e-005 -1.70846 14.8607 77.4691 -16.1446 26.0049 7.42148 2.47192 -14.5534 8.92793 178.043 -79.6863 179.194 -176.524 8.08854 72.8745 -18.7594 -1.01186 9.90317 0.0177616 -5.00886 0.0387307 33.496 -81.8194 38.8811 -23.508 4.63459e-006 -5.90926e-006 20.6295 -10.8571 2.88739 34.1631 42.6534 -36.7319 -35.6172 -5.54561 -0.908731 17.1056 -26.2388 19.5532 -90 0 0 -177.871 20.5298 -8.26832 -3.84493 -1.71456 2.36934 -32.4938 -15.6584 169.853 -90 0 0
53.355 91.9078 101.621 -70.5706 -87.1079 -160.546 -9.59633 -2.19129 1.1265 20.3713 -0.340718 -0.589946 2.7794 1.93418e-006 1.65929e-005 -1.71355 14.7435 77.4305 -16.1324 25.8757 7.36235 2.47737 -14.5986 8.92308 178.858 -79.7068 -179.986 -176.524 8.06697 72.8728 -18.7665 -0.944691 9.88466 0.0182649 -5.20193 0.0336179 33.8742 -81.7098 39.2158 -23.508 4.63459e-006 -5.90926e-006 20.8053 -10.9111 2.91654 33.9549 42.8514 -36.3547 -35.4387 -5.5633 -0.905913 17.3342 -26.3026 19.8571 -90 0 0 -177.641 20.7065 -8.59638 -3.85406 -1.72486 2.36775 -32.5742 -15.7233 169.777 -90 0 0
53.6173 91.9237 101.554 -68.6491 -87.2084 -158.736 -9.65879 -2.27776 1.20371 20.5 -0.34833 -0.601585 2.7794 1.93418e-006 1.65929e-005 -1.7196 14.6453 77.4093 -16.1422 25.7968 7.26589 2.47328 -14.5642 8.92676 179.738 -79.6579 -179.019 -176.509 7.99252 72.7992 -18.7264 -1.02338 9.90968 0.0191806 -5.15431 0.0349541 35.1107 -81.5832 40.4104 -23.508 4.63459e-006 -5.90926e-006 21.089 -10.95 2.94471 33.7089 42.98 -35.9266 -35.2915 -5.57422 -0.90459 17.551 -26.347 20.0063 -90 0 0 -177.443 20.8131 -8.88504 -3.8619 -1.74641 2.36694 -32.6806 -15.7112 169.904 -90 0 0
53.8635 91.9507 101.463 -66.4686 -87.2891 -156.67 -9.73108 -2.34589 1.30714 20.5962 -0.354057 -0.610283 2.7794 1.93418e-006 1.65929e-005 -1.71856 14.5392 77.3375 -16.1932 25.7185 7.24139 2.48693 -14.6732 8.91476 -179.763 -79.7508 -178.529 -176.486 7.91657 72.6965 -18.6508 -1.15618 9.9487 0.0203154 -4.96769 0.0400212 35.9221 -81.559 41.1721 -23.508 4.63459e-006 -5.90926e-006 21.4386 -11.0366 2.95609 33.4672 43.013 -35.4451 -35.2067 -5.57892 -0.903986 17.6757 -26.3112 20.029 -90 0 0 -177.216 20.9065 -9.16541 -3.87397 -1.77183 2.36624 -32.8177 -15.6913 170.04 -90 0 0
54.1151 91.9793 101.368 -65.2439 -87.2701 -155.53 -9.82891 -2.2989 1.37209 20.7133 -0.361028 -0.620838 2.7794 1.93418e-006 1.65929e-005 -1.72783 14.3843 77.2982 -16.2295 25.637 7.25174 2.46647 -14.5053 8.93312 -179.146 -79.7296 -177.869 -176.435 7.8076 72.4698 -18.5932 -1.29583 10.0557 0.0217226 -4.53054 0.0516266 38.0273 -81.7634 43.2854 -23.508 4.63459e-006 -5.90926e-006 21.7655 -11.143 3.03412 33.3063 43.0485 -35.068 -35.2164 -5.57842 -0.903955 17.7776 -26.2403 20.0355 -90 0 0 -176.99 20.9136 -9.41224 -3.88672 -1.79856 2.36566 -32.9824 -15.7229 170.182 -90 0 0
54.3482 92.0149 101.255 -64.7792 -87.1674 -155.149 -9.96074 -2.21658 1.4471 20.7755 -0.364739 -0.626433 2.7794 1.93418e-006 1.65929e-005 -1.71554 14.3758 77.225 -16.3533 25.517 7.31285 2.46191 -14.4653 8.93762 -179.378 -79.5563 -178.091 -176.379 7.70858 72.2306 -18.5804 -1.17369 10.144 0.0225879 -4.45545 0.0535992 39.8907 -81.9113 44.9957 -23.508 4.63459e-006 -5.90926e-006 22.2572 -11.2584 3.0892 33.2288 43.0931 -34.7591 -35.2922 -5.572 -0.905028 17.7388 -26.098 19.9236 -90 0 0 -176.741 20.8723 -9.6443 -3.89789 -1.82828 2.36518 -33.1896 -15.7253 170.217 -90 0 0
54.5568 92.0496 101.145 -65.7799 -86.9296 -156.216 -10.0998 -2.02114 1.51541 20.812 -0.366007 -0.628679 2.7794 1.93418e-006 1.65929e-005 -1.70962 14.3411 77.1687 -16.3791 25.4218 7.36348 2.44033 -14.288 8.95696 -179.543 -79.2644 -178.248 -176.324 7.56786 71.9746 -18.5758 -1.28438 10.2281 0.0237392 -4.0475 0.0644837 41.5522 -82.057 46.75 -23.508 4.63459e-006 -5.90926e-006 22.734 -11.4004 3.19011 33.2333 43.2155 -34.5892 -35.4209 -5.55896 -0.907162 17.7441 -25.9794 19.7155 -90 0 0 -176.496 20.7427 -9.8425 -3.90174 -1.85437 2.36479 -33.4079 -15.7978 170.21 -90 0 0
54.7248 92.0796 101.041 -66.948 -86.6176 -157.428 -10.1872 -1.80046 1.58559 20.8065 -0.366637 -0.629927 2.7794 1.93418e-006 1.65929e-005 -1.70039 14.3659 77.1281 -16.3896 25.3372 7.34314 2.40439 -13.9968 8.98871 -179.274 -79.0467 -177.993 -176.275 7.43385 71.744 -18.587 -1.42722 10.3089 0.0245756 -3.91261 0.0680112 41.2757 -82.0011 46.4642 -23.508 4.63459e-006 -5.90926e-006 23.1425 -11.5475 3.24946 33.3509 43.3821 -34.5617 -35.5743 -5.54457 -0.909749 17.6649 -25.8609 19.4888 -90 0 0 -176.25 20.6409 -9.99624 -3.90343 -1.87959 2.36448 -33.6483 -15.9488 170.1 -90 0 0
